/* XPM */
static char * blueproximity_base_xpm[] = {
"64 64 163 2",
"  	c None",
". 	c #FFFFFF",
"+ 	c #FFFFFF",
"@ 	c #4A4AB7",
"# 	c #4141B3",
"$ 	c #9494D4",
"% 	c #C5C5E8",
"& 	c #BEBEE5",
"* 	c #8484CE",
"= 	c #ADADDE",
"- 	c #3131AD",
"; 	c #6B6BC4",
"> 	c #A5A5DB",
", 	c #9C9CD8",
"' 	c #5B5BBD",
") 	c #2121A6",
"! 	c #5454BB",
"~ 	c #8B8BD0",
"{ 	c #B4B4E1",
"] 	c #3838AF",
"^ 	c #2A2AAA",
"/ 	c #7474C7",
"( 	c #D5D5EE",
"_ 	c #CECEEC",
": 	c #6262C0",
"< 	c #7C7CCB",
"[ 	c #1919A3",
"} 	c #5050B9",
"| 	c #E6E6F5",
"1 	c #EEEEF8",
"2 	c #DCDCF1",
"3 	c #B8B8E3",
"4 	c #F7F7FC",
"5 	c #3C3CB1",
"6 	c #CBCBE9",
"7 	c #5C5C62",
"8 	c #6C6C74",
"9 	c #757577",
"0 	c #7878C8",
"a 	c #E0E0F3",
"b 	c #8E8ED2",
"c 	c #777779",
"d 	c #646465",
"e 	c #4A4A5B",
"f 	c #F4F4F8",
"g 	c #53536A",
"h 	c #6666C2",
"i 	c #787878",
"j 	c #A2A2D8",
"k 	c #5A5A6B",
"l 	c #2626A8",
"m 	c #4242AD",
"n 	c #2A2A51",
"o 	c #1313A1",
"p 	c #545460",
"q 	c #5A5AB5",
"r 	c #1A1A42",
"s 	c #7171BD",
"t 	c #646484",
"u 	c #414161",
"v 	c #3F3FA5",
"w 	c #4C4C9C",
"x 	c #32325A",
"y 	c #5A5AAE",
"z 	c #4A4AAC",
"A 	c #E7E7E7",
"B 	c #424259",
"C 	c #656571",
"D 	c #CCCCDE",
"E 	c #B8B8CC",
"F 	c #424274",
"G 	c #4C4C6A",
"H 	c #52525E",
"I 	c #5B5B7C",
"J 	c #595993",
"K 	c #4D4D8E",
"L 	c #5353AB",
"M 	c #D6D6E8",
"N 	c #8282C6",
"O 	c #E7E7F2",
"P 	c #1212A0",
"Q 	c #484865",
"R 	c #62627B",
"S 	c #41416D",
"T 	c #A5A5A6",
"U 	c #525293",
"V 	c #7C7C85",
"W 	c #4C4C85",
"X 	c #3A3AA2",
"Y 	c #24244A",
"Z 	c #DEDEDE",
"` 	c #44449D",
" .	c #8D8DBB",
"..	c #4C4C96",
"+.	c #3232A6",
"@.	c #9A9ACE",
"#.	c #8E8EA7",
"$.	c #454578",
"%.	c #6161B5",
"&.	c #BEBEDF",
"*.	c #83838C",
"=.	c #1D1D44",
"-.	c #343474",
";.	c #4A4A7A",
">.	c #424292",
",.	c #86869E",
"'.	c #3E3E84",
").	c #6A6AB3",
"!.	c #58589C",
"~.	c #C4C4C5",
"{.	c #6D6DAC",
"].	c #C0C0D2",
"^.	c #8585BE",
"/.	c #7777CA",
"(.	c #797996",
"_.	c #141447",
":.	c #696979",
"<.	c #BDBDBD",
"[.	c #2C2C57",
"}.	c #D8D8D8",
"|.	c #6A6ABB",
"1.	c #EDEDED",
"2.	c #757580",
"3.	c #363660",
"4.	c #9E9E9E",
"5.	c #A8A8C4",
"6.	c #BBBBD0",
"7.	c #6E6EA4",
"8.	c #38389C",
"9.	c #26266A",
"0.	c #9F9FDB",
"a.	c #53539F",
"b.	c #AFAFC4",
"c.	c #939393",
"d.	c #6F6F6F",
"e.	c #5E5EA7",
"f.	c #38387C",
"g.	c #636399",
"h.	c #9797B1",
"i.	c #292984",
"j.	c #565675",
"k.	c #696982",
"l.	c #5C5C71",
"m.	c #3A3A6A",
"n.	c #5D5D89",
"o.	c #9A9AB0",
"p.	c #7575AB",
"q.	c #6464AF",
"r.	c #DBDBE7",
"s.	c #B6B6B9",
"t.	c #5C5C81",
"u.	c #9898BC",
"v.	c #4D4DA2",
"w.	c #96969B",
"x.	c #3A3A73",
"y.	c #5353A3",
"z.	c #6464A6",
"A.	c #2D2D5F",
"B.	c #8282A1",
"C.	c #9191AB",
"D.	c #D9D9DA",
"E.	c #4F4F8B",
"F.	c #7C7C9A",
"                                                                                                                                ",
"                                                                                                                                ",
"                                                                                                                                ",
"                                                  4 1 | | a ( _ _ _ _ ( ( | 4                                                   ",
"                                            4 | a a ( _ & { > > , , > = { 3 = = % |                                             ",
"                                      + 1 | | ( { , , , $ $ $ b ~ * * * < 0 / $ > > > % 4                                       ",
"                                  + 1 1 | & > > > > j , , , $ $ b ~ ~ * * < 0 / ; ; ~ 0.b % 4                                   ",
"                                4 1 | & = = = = = > > > j , , $ $ $ ~ ~ * * < / / ; ; : < $ * (                                 ",
"                            + 1 1 % { { { { { = = = = > > > , , $ $ $ ~ ~ * < < / / ; ; : ' * * , 4                             ",
"                          4 1 | 3 { 3 3 3 3 { { { { = = = > > , , $ $ b ~ * * < 0 / ; ; : : ' ' ~ /.|                           ",
"                        4 1 ( 3 & & & & & & & & 3 { { { = = > > , , $ $ b ~ * * < / / ; ; : ' ' ! * h (                         ",
"                      4 1 _ & & & % % % % % % & & & & { { = = > > , , $ $ ~ ~ * < 0 / ; ; : : ' ! } ; : 6                       ",
"                    4 1 _ & & % % % % % 8 7 7 7 7 7 7 7 7 7 7 7 7 7 p p p p R R g J s / ; ; : ' ' ! @ ; ' _                     ",
"                  4 | _ & % % % 6 _ _ _ 9 + + + + + + + + + + + + + + + + + + + + <.8 g !.; : ' ' ! @ @ ; } 2                   ",
"                + | ( & % % 6 _ _ ( ( ( 9 + + + + + + + + + + + + + + + + + + + + + + + T e q : ' ! } @ # ; } 4                 ",
"                1 a & % % 6 _ ( ( ( ( 2 9 + + + + + + + + + + + + + + + + + + + + + + + + f e L ' ! } @ @ # ; N                 ",
"              f | & % % 6 _ ( ( 2 2 2 a 9 + + + + + + + + + + + + + + + + + + + + + + + + + f e ' ' ! @ @ # # } &.              ",
"            + | _ & % % _ ( ( 2 2 a | | 9 + + + + 8 p H H e e e e e B B B t g p k ~.+ + + + + D.S ' ! @ @ # 5 ' z 4             ",
"            1 a & & % _ _ ( 2 2 | | | 1 i + + + + 8 ( _ _ % & & { { = > j , $ $ ~ n.8 + + + + + 2.L ! @ @ # 5 ] %.@.            ",
"          + 2 % & % % _ ( ( 2 a | 1 1 1 i + + + + 8 ( ( _ % % & 3 { = > > , $ $ ~ * {.V + + + + A F ! } @ # # ] @ 8.f           ",
"          | 2 3 & % % _ ( 2 2 | | 1 f 4 i + + + + 8 2 ( _ 6 % & 3 { = > > , $ $ ~ * * j.A + + + + g ! } @ # # ] - y j           ",
"          2 % 3 & % 6 _ ( 2 a | 1 1 4 + i + + + + 8 2 ( _ 6 % & & { = = > , $ $ ~ * * s V + + + + C ! } @ # # ] - q `           ",
"        1 ( { 3 & % 6 _ ( 2 a | 1 1 4 + i + + + + 8 2 ( _ 6 % & & { = = > , $ $ ~ * * < k + + + + 9 ! } @ # # ] - - ` M         ",
"        a _ { 3 & % 6 _ ( 2 a | 1 1 4 4 i + + + + 8 2 ( _ 6 % & 3 { = = > , $ $ ~ * * < g + + + + 9 ! } @ # # ] - - %.^.        ",
"        ( & { 3 & % % _ ( ( 2 | | 1 1 1 i + + + + 8 ( ( _ % % & 3 { = > > , $ $ ~ * * < g + + + + 9 ! } @ # # ] - ^ @ >.        ",
"      4 _ = { { & % % _ ( ( 2 a | | 1 1 i + + + + 8 ( ( _ % % & { { = > j , $ $ ~ * * < l.+ + + + 8 ! @ @ # # ] - ^ ^ i.1       ",
"      1 _ = = { & & % 6 _ ( ( 2 a | | | i + + + + 8 ( _ 6 % & & { = = > , , $ $ ~ * < ).*.+ + + + C ! @ @ # 5 ] - ^ ^ w &.      ",
"      2 % = = { 3 & % % _ _ ( ( 2 2 a a 9 + + + + 8 _ _ % % & 3 { = = > , , $ b ~ * < G A + + + Z t ! @ @ # 5 ] - ^ ^ y  .      ",
"      ( & > = { { & & % % _ _ ( ( 2 2 2 9 + + + + 8 _ % % & & { { = > > , $ $ ~ ~ * g.*.+ + + + 4.e.} @ @ # 5 ] - ^ ) y 7.      ",
"      _ 3 > = = { 3 & & % % _ _ ( ( ( ( 9 + + + + C % % & & 3 { = = > , , $ $ ~ * I V + + + + + k ! } @ # # ] - - ^ ) z U       ",
"      % = > > = = { 3 & & % % 6 _ _ _ _ 9 + + + + C % & & 3 { = = > > , $ $  .k.k ~.+ + + + + s.W ! } @ # # ] - - ^ ) m f.      ",
"      & = , > > = { { 3 & & % % % 6 6 6 9 + + + + i d d d d d d d d d d c.d.T Z + + + + + + A B ' ! @ @ # 5 ] - ^ ^ ) m -.      ",
"      3 > , , > = = { { 3 & & & % % % % 9 + + + + + + + + + + + + + + + + + + + + + + + + 1.e } ! } @ @ # 5 ] - ^ ^ ) ] -.      ",
"      { > , , j > = = = { { 3 & & & & & 9 + + + + + + + + + + + + + + + + + + + + + + f w.u q ' ! } @ # # ] - - ^ ) ) m x.      ",
"      & = $ , , j > > = = { { { 3 3 & & 9 + + + + + + + + + + + + + + + + + + + }.T 8 g !.: ' ' ! @ @ # 5 ] - ^ ^ ) ) z ;.      ",
"      % = $ $ , , j > > = = = { { { { { 9 + + + + 9 d d d d 7 7 7 7 7 p H 8 :.g t.z.; ; : : ' ! } @ # # 5 ] - ^ ^ ) [ v.t       ",
"      6 = ~ $ $ , , , > > > = = = = = = 9 + + + + k > > > , , , $ $ b ~ * * < 0 / ; ; h : ' ' ! @ @ # # ] - - ^ ) ) [ K ,.      ",
"      2 > ~ ~ $ $ $ , , , > > > > = = = 9 + + + + k > , , , $ $ $ ~ ~ * * < 0 / / ; ; : ' ' ! } @ @ # 5 ] - ^ ^ ) ) [ S 6.      ",
"      4 $ * ~ ~ $ $ $ , , , , j > > > > 9 + + + + g , , , $ $ $ ~ ~ * * < < / / ; ; : : ' ! } @ @ # # ] - - ^ ) ) [ [ r O       ",
"        $ $ * ~ ~ b $ $ $ $ , , , , , , 9 + + + + g $ $ $ $ b ~ ~ * * < < / / ; ; : : ' ' ! @ @ # # 5 ] - ^ ^ ) ) [ v n         ",
"        3 > * * * ~ ~ b $ $ $ $ $ $ , , 9 + + + + g $ $ b ~ ~ * * * < 0 / / ; ; h : ' ' ! } @ @ # 5 ] - - ^ ) ) [ [ K (.        ",
"        | ~ < < * * * ~ ~ ~ b $ $ $ $ $ 9 + + + + g b ~ ~ * * * < < 0 / / ; ; h : ' ' ! } @ @ # # ] ] - ^ ^ ) ) [ P [.D         ",
"          * $ < < * * * * ~ ~ ~ ~ ~ b b 9 + + + + G ~ * * * * < < / / / ; ; h : ' ' ! ! @ @ # # 5 ] - - ^ ) ) [ [ v n           ",
"          % ~ / 0 < < < * * * * * * ~ ~ 9 + + + + G * * < < < 0 / / ; ; ; : : ' ' ! ! @ @ @ # 5 ] - - ^ ^ ) ) [ P $.C.          ",
"          + 0 ~ / / 0 < < < < * * * * * 9 + + + + Q < < < 0 / / / ; ; ; : : ' ' ! ! @ @ @ # # ] - - ^ ^ ) ) [ [ +.r f           ",
"            { ~ ; / / / / 0 0 < < < < < 9 + + + + Q 0 / / / / ; ; ; h : : ' ' ! ! @ @ @ # # ] ] - ^ ^ ) ) [ [ P F #.            ",
"            4 s ~ ; ; ; / / / / / / / / 9 + + + + Q / / ; ; ; ; ; : : ' ' ' ! } @ @ @ # # ] ] - - ^ ) ) [ [ P v Y f             ",
"              ( )./ ; ; ; ; ; / / / / / 9 + + + + u ; ; ; ; h : : : ' ' ! ! } @ @ @ # # ] ] - - ^ ^ ) ) [ [ [ n E               ",
"                @.N : : h ; ; ; ; ; ; ; 9 + + + + u ; h : : : : ' ' ' ! ! } @ @ # # # ] ] - - ^ ^ ) ) [ [ P W I                 ",
"                4 q.N : : : : : : h h ; 9 + + + + u : : : ' ' ' ' ! ! } @ @ @ # # 5 ] ] - - ^ ^ ) ) [ [ P w n f                 ",
"                  O y.0 ' ' ' : : : : : 9 + + + + u ' ' ' ' ' ! ! } @ @ @ # # # 5 ] - - - ^ ^ ) ) [ [ P X =.M                   ",
"                    M w s ' ' ' ' ' ' ' k e e e e 3.' ! ! ! } } @ @ @ @ # # # 5 ] - - ^ ^ ^ ) ) [ [ P X =.].                    ",
"                      6 ../ ! ! ! ! ! ! ! ! ! ! ! ! ! } } @ @ @ @ @ # # # 5 ] ] - - ^ ^ ) ) ) [ [ P X r E                       ",
"                        6 >.s } } } } } } } } } } @ @ @ @ @ @ # # # # 5 ] ] - - - ^ ^ ) ) ) [ [ P w r ].                        ",
"                          O ..{.} @ @ @ @ @ @ @ @ @ @ @ # # # # # 5 ] ] - - - ^ ^ ^ ) ) ) [ [ ) W Y r.                          ",
"                            4 p.'.|.# # # # # # # # # # # # 5 ] ] ] - - - ^ ^ ^ ) ) ) [ [ [ v n R f                             ",
"                                D '.U q # # # # # 5 5 5 ] ] ] - - - - ^ ^ ^ ) ) ) ) [ [ +.;.Y b.                                ",
"                                  + u.9.E.q ] ] ] ] ] ] - - - - - ^ ^ ^ ) ) ) ) [ [ v $.r #.4                                   ",
"                                      4 5.m.A.J q ] - - - - ^ ^ ^ ^ ) ) ) ) [ m K x n h.f                                       ",
"                                            D B.S _.F J a.y z m m m L w U F r n F.D                                             ",
"                                                  f E o.t I x x x x G t ,.E 1                                                   ",
"                                                                                                                                ",
"                                                                                                                                ",
"                                                                                                                                "};
